Coordinates
version=1
nRows=10
nColumns=40
inDegrees=yes

Units are S.I. units (second, meters, Newtons, ...)
Angles are in degrees.

endheader
time	pelvis_tilt	pelvis_list	pelvis_rotation	pelvis_tx	pelvis_ty	pelvis_tz	hip_flexion_r	hip_adduction_r	hip_rotation_r	knee_angle_r	knee_angle_r_beta	ankle_angle_r	subtalar_angle_r	mtp_angle_r	hip_flexion_l	hip_adduction_l	hip_rotation_l	knee_angle_l	knee_angle_l_beta	ankle_angle_l	subtalar_angle_l	mtp_angle_l	lumbar_extension	lumbar_bending	lumbar_rotation	arm_flex_r	arm_add_r	arm_rot_r	elbow_flex_r	pro_sup_r	wrist_flex_r	wrist_dev_r	arm_flex_l	arm_add_l	arm_rot_l	elbow_flex_l	pro_sup_l	wrist_flex_l	wrist_dev_l
      1.35000000	      0.34213035	      7.48418929	     -5.13476373	     -0.01924084	      0.95713211	      1.45184853	     19.11401522	    -20.32616920	    -13.11522358	    -57.12439817	     -0.99700883	      1.38345411	    -17.73068488	     16.14781048	      4.27525050	     -9.47053637	     14.84738134	    -11.34831276	     -0.19806542	      3.25176955	      6.77154194	     -1.59827448	     -3.31182871	     -7.58966046	      1.80471844	      3.54819596	    -10.44716396	    -11.54736578	     21.78595087	     89.95437384	      0.00000000	      0.00000000	      3.63450707	     11.55420935	      7.56313480	     18.99832139	     89.95437384	      0.00000000	      0.00000000
      1.36000000	      0.20807204	      7.02332102	     -4.68116049	     -0.01271191	      0.95746960	      1.45059378	     19.97109978	    -19.63261607	    -13.56846359	    -55.97399408	     -0.97693049	      1.68293501	    -17.46441096	     16.22342496	      3.88448275	     -9.10103939	     14.35454532	    -11.31820235	     -0.19753990	      3.53016802	      6.63515725	     -1.78382027	     -3.45472279	     -7.01801824	      1.11339826	      3.49241012	    -10.40767327	    -11.99949131	     21.57618874	     89.95437384	      0.00000000	      0.00000000	      4.46735235	     11.90733541	      6.75562593	     19.67042479	     89.95437384	      0.00000000	      0.00000000
      1.37000000	     -0.02074156	      6.91116912	     -4.37306954	     -0.00609959	      0.95735769	      1.44923258	     21.10809532	    -19.34427514	    -13.79723500	    -54.83598561	     -0.95706850	      1.93479753	    -17.08755187	     15.98211871	      3.67997108	     -9.07974222	     14.38703630	    -11.36195812	     -0.19830358	      3.78862150	      6.53982234	     -1.84357558	     -3.40880284	     -6.80753010	      0.63921465	      3.23054904	    -10.43578577	    -12.07377879	     21.60468537	     89.95437384	      0.00000000	      0.00000000	      5.32172858	     12.13482707	      6.56186109	     20.38622276	     89.95437384	      0.00000000	      0.00000000
      1.38000000	     -0.16231440	      6.23406316	     -3.84768082	      0.00045063	      0.95752615	      1.44810534	     21.74097565	    -18.39539330	    -14.39282847	    -53.28730509	     -0.93003892	      2.42714791	    -16.70381066	     15.91730359	      3.25923551	     -8.47249023	     13.54528692	    -11.30955916	     -0.19738904	      4.39924645	      6.47514172	     -2.02296510	     -3.55312808	     -5.99520754	      0.00980084	      3.15853946	    -10.36264470	    -13.02797303	     21.32788897	     89.95437384	      0.00000000	      0.00000000	      6.14449608	     12.44108959	      5.72904777	     21.19788222	     89.95437384	      0.00000000	      0.00000000
      1.39000000	     -0.20680711	      5.83799255	     -3.40070311	      0.00709510	      0.95771044	      1.44702012	     22.31189149	    -17.83127564	    -14.96534355	    -51.66725610	     -0.90176373	      2.77854285	    -16.26935011	     15.89514208	      2.82870855	     -8.13856875	     13.15375642	    -11.39598915	     -0.19889753	      4.78651299	      6.56891417	     -2.18272368	     -3.74935732	     -5.50030603	     -0.52164673	      3.07754280	    -10.27232735	    -14.00501706	     21.07171084	     89.95437384	      0.00000000	      0.00000000	      7.05765400	     12.78539436	      4.85725071	     21.89024974	     89.95437384	      0.00000000	      0.00000000
      1.40000000	     -0.46794862	      5.63320946	     -3.17931205	      0.01355211	      0.95728459	      1.44607986	     23.37384463	    -17.39715692	    -15.10291042	    -50.22732598	     -0.87663221	      3.00085173	    -15.69109127	     15.68723582	      2.59008679	     -8.00235450	     12.97053348	    -11.29242967	     -0.19709008	      5.08499144	      6.40147992	     -2.28864016	     -3.67775112	     -5.17722514	     -0.94648421	      2.95060046	    -10.27463205	    -14.34828680	     20.95797664	     89.95437384	      0.00000000	      0.00000000	      7.83895149	     13.06953853	      4.43911034	     22.56162969	     89.95437384	      0.00000000	      0.00000000
      1.41000000	     -0.72819586	      5.66785387	     -2.99042654	      0.02024899	      0.95665208	      1.44517025	     24.42738154	    -17.27255526	    -15.24865521	    -48.69177360	     -0.84983177	      3.21929759	    -15.19975535	     15.44931206	      2.42205564	     -8.09320222	     13.08441474	    -11.33194657	     -0.19777978	      5.36452096	      6.29937139	     -2.34682376	     -3.52142224	     -5.13667326	     -1.29008938	      2.68832914	    -10.28862764	    -14.48269827	     20.99139664	     89.95437384	      0.00000000	      0.00000000	      8.62235760	     13.35517104	      4.28085760	     23.26481677	     89.95437384	      0.00000000	      0.00000000
      1.42000000	     -0.41577895	      4.90446511	     -2.58210097	      0.02732982	      0.95727500	      1.44486112	     24.23046377	    -16.24743451	    -15.85383593	    -46.56025961	     -0.81262983	      3.33709586	    -14.45718214	     15.36216834	      1.44818198	     -7.30447301	     12.60124300	    -11.21514371	     -0.19574118	      5.83699386	      6.10156329	     -2.71089349	     -4.10426487	     -4.27725082	     -1.71424042	      2.74638657	    -10.09056566	    -16.27497596	     20.49852804	     89.95437384	      0.00000000	      0.00000000	      9.49505313	     13.75620382	      2.94953961	     24.01082114	     89.95437384	      0.00000000	      0.00000000
      1.43000000	     -0.69741277	      5.01825016	     -2.48659048	      0.03420208	      0.95644125	      1.44421622	     25.26362737	    -16.19507266	    -15.96114695	    -44.88701792	     -0.78342625	      3.50401994	    -13.97979331	     15.16436885	      1.25108290	     -7.47721795	     12.75430194	    -11.16838202	     -0.19492504	      6.06580359	      5.92243724	     -2.78385645	     -3.89033802	     -4.32840537	     -1.93812041	      2.47514281	    -10.11308489	    -16.33126359	     20.45318157	     89.95437384	      0.00000000	      0.00000000	     10.22402462	     14.00586886	      2.86246173	     24.68313860	     89.95437384	      0.00000000	      0.00000000
      1.44000000	     -0.66349608	      4.54197468	     -2.36856833	      0.04109512	      0.95628473	      1.44412534	     25.55335406	    -15.36837378	    -16.09466814	    -42.70941386	     -0.74541989	      3.46291857	    -13.06759990	     15.07636442	      0.54361124	     -6.99772058	     12.58101122	    -10.85769857	     -0.18950259	      6.37073053	      5.62110212	     -3.08089899	     -4.09508720	     -3.75071477	     -2.17043878	      2.55441756	    -10.09152253	    -17.10074802	     19.96576788	     89.95437384	      0.00000000	      0.00000000	     10.91770862	     14.32947138	      2.19966383	     25.49018075	     89.95437384	      0.00000000	      0.00000000
